<mxfile host="app.diagrams.net" modified="2020-07-26T03:15:14.095Z" agent="5.0 (Windows NT 10.0; Win64; x64) AppleWebKit/537.36 (KHTML, like Gecko) Chrome/84.0.4147.89 Safari/537.36" etag="Nuyh3oZqPUEywQ50XPN2" version="13.5.3" type="github">
  <diagram id="xg_dvaqwXXyuTsxp9f1a" name="第 1 页">
    <mxGraphModel dx="1360" dy="834" grid="1" gridSize="10" guides="1" tooltips="1" connect="1" arrows="1" fold="1" page="1" pageScale="1" pageWidth="827" pageHeight="1169" math="0" shadow="0">
      <root>
        <mxCell id="0" />
        <mxCell id="1" parent="0" />
        <mxCell id="OcMb3e71pZyRCdOineBB-1" value="my fisrt diagram" style="rounded=0;whiteSpace=wrap;html=1;" vertex="1" parent="1">
          <mxGeometry x="350" y="400" width="120" height="60" as="geometry" />
        </mxCell>
      </root>
    </mxGraphModel>
  </diagram>
</mxfile>
